<svg width="80" height="45" viewBox="0 0 80 45" fill="none" xmlns="http://www.w3.org/2000/svg">
<rect x="32" y="23" width="48" height="22" rx="5" fill="#EF667E"/>
<path d="M47.0662 35.535C47.0662 36.095 46.9962 36.5967 46.8562 37.04C46.7209 37.4833 46.5179 37.859 46.2472 38.167C45.9812 38.4703 45.6522 38.7037 45.2602 38.867C44.8682 39.0303 44.4179 39.112 43.9092 39.112C43.4565 39.112 42.9852 39.0467 42.4952 38.916C42.5045 38.7807 42.5162 38.6477 42.5302 38.517C42.5442 38.3817 42.5582 38.2487 42.5722 38.118C42.5815 38.0387 42.6095 37.9757 42.6562 37.929C42.7075 37.8777 42.7822 37.852 42.8802 37.852C42.9642 37.852 43.0762 37.873 43.2162 37.915C43.3562 37.957 43.5429 37.978 43.7762 37.978C44.0842 37.978 44.3572 37.9313 44.5952 37.838C44.8379 37.7447 45.0409 37.6 45.2042 37.404C45.3722 37.208 45.4982 36.9583 45.5822 36.655C45.6709 36.347 45.7152 35.983 45.7152 35.563V28.969H47.0662V35.535ZM52.1879 31.797C52.7059 31.797 53.1726 31.8833 53.5879 32.056C54.0079 32.2287 54.3626 32.4737 54.6519 32.791C54.9459 33.1083 55.1699 33.4933 55.3239 33.946C55.4826 34.394 55.5619 34.8957 55.5619 35.451C55.5619 36.011 55.4826 36.515 55.3239 36.963C55.1699 37.411 54.9459 37.7937 54.6519 38.111C54.3626 38.4283 54.0079 38.6733 53.5879 38.846C53.1726 39.014 52.7059 39.098 52.1879 39.098C51.6699 39.098 51.2009 39.014 50.7809 38.846C50.3656 38.6733 50.0109 38.4283 49.7169 38.111C49.4229 37.7937 49.1966 37.411 49.0379 36.963C48.8792 36.515 48.7999 36.011 48.7999 35.451C48.7999 34.8957 48.8792 34.394 49.0379 33.946C49.1966 33.4933 49.4229 33.1083 49.7169 32.791C50.0109 32.4737 50.3656 32.2287 50.7809 32.056C51.2009 31.8833 51.6699 31.797 52.1879 31.797ZM52.1879 38.125C52.8879 38.125 53.4106 37.8917 53.7559 37.425C54.1012 36.9537 54.2739 36.298 54.2739 35.458C54.2739 34.6133 54.1012 33.9553 53.7559 33.484C53.4106 33.0127 52.8879 32.777 52.1879 32.777C51.8332 32.777 51.5252 32.8377 51.2639 32.959C51.0026 33.0803 50.7832 33.2553 50.6059 33.484C50.4332 33.7127 50.3026 33.995 50.2139 34.331C50.1299 34.6623 50.0879 35.038 50.0879 35.458C50.0879 35.878 50.1299 36.2537 50.2139 36.585C50.3026 36.9163 50.4332 37.1963 50.6059 37.425C50.7832 37.649 51.0026 37.8217 51.2639 37.943C51.5252 38.0643 51.8332 38.125 52.1879 38.125ZM61.1572 33.078C61.1012 33.1807 61.0149 33.232 60.8982 33.232C60.8282 33.232 60.7489 33.2063 60.6602 33.155C60.5715 33.1037 60.4619 33.0477 60.3312 32.987C60.2052 32.9217 60.0535 32.8633 59.8762 32.812C59.6989 32.756 59.4889 32.728 59.2462 32.728C59.0362 32.728 58.8472 32.756 58.6792 32.812C58.5112 32.8633 58.3665 32.9357 58.2452 33.029C58.1285 33.1223 58.0375 33.232 57.9722 33.358C57.9115 33.4793 57.8812 33.6123 57.8812 33.757C57.8812 33.939 57.9325 34.0907 58.0352 34.212C58.1425 34.3333 58.2825 34.4383 58.4552 34.527C58.6279 34.6157 58.8239 34.695 59.0432 34.765C59.2625 34.8303 59.4865 34.9027 59.7152 34.982C59.9485 35.0567 60.1749 35.1407 60.3942 35.234C60.6135 35.3273 60.8095 35.444 60.9822 35.584C61.1549 35.724 61.2925 35.8967 61.3952 36.102C61.5025 36.3027 61.5562 36.5453 61.5562 36.83C61.5562 37.1567 61.4979 37.46 61.3812 37.74C61.2645 38.0153 61.0919 38.2557 60.8632 38.461C60.6345 38.6617 60.3545 38.8203 60.0232 38.937C59.6919 39.0537 59.3092 39.112 58.8752 39.112C58.3805 39.112 57.9325 39.0327 57.5312 38.874C57.1299 38.7107 56.7892 38.503 56.5092 38.251L56.8032 37.775C56.8405 37.7143 56.8849 37.6677 56.9362 37.635C56.9875 37.6023 57.0552 37.586 57.1392 37.586C57.2232 37.586 57.3119 37.6187 57.4052 37.684C57.4985 37.7493 57.6105 37.8217 57.7412 37.901C57.8765 37.9803 58.0375 38.0527 58.2242 38.118C58.4155 38.1833 58.6535 38.216 58.9382 38.216C59.1809 38.216 59.3932 38.1857 59.5752 38.125C59.7572 38.0597 59.9089 37.9733 60.0302 37.866C60.1515 37.7587 60.2402 37.635 60.2962 37.495C60.3569 37.355 60.3872 37.2057 60.3872 37.047C60.3872 36.851 60.3335 36.69 60.2262 36.564C60.1235 36.4333 59.9859 36.3237 59.8132 36.235C59.6405 36.1417 59.4422 36.0623 59.2182 35.997C58.9989 35.927 58.7725 35.8547 58.5392 35.78C58.3105 35.7053 58.0842 35.6213 57.8602 35.528C57.6409 35.43 57.4449 35.3087 57.2722 35.164C57.0995 35.0193 56.9595 34.842 56.8522 34.632C56.7495 34.4173 56.6982 34.1583 56.6982 33.855C56.6982 33.5843 56.7542 33.3253 56.8662 33.078C56.9782 32.826 57.1415 32.6067 57.3562 32.42C57.5709 32.2287 57.8345 32.077 58.1472 31.965C58.4599 31.853 58.8169 31.797 59.2182 31.797C59.6849 31.797 60.1025 31.8717 60.4712 32.021C60.8445 32.1657 61.1665 32.3663 61.4372 32.623L61.1572 33.078ZM63.1675 39V28.689H64.4135V32.861C64.7168 32.539 65.0528 32.2823 65.4215 32.091C65.7902 31.895 66.2148 31.797 66.6955 31.797C67.0828 31.797 67.4235 31.8623 67.7175 31.993C68.0162 32.119 68.2635 32.301 68.4595 32.539C68.6602 32.7723 68.8118 33.0547 68.9145 33.386C69.0172 33.7173 69.0685 34.0837 69.0685 34.485V39H67.8225V34.485C67.8225 33.9483 67.6988 33.533 67.4515 33.239C67.2088 32.9403 66.8355 32.791 66.3315 32.791C65.9628 32.791 65.6175 32.8797 65.2955 33.057C64.9782 33.2343 64.6842 33.4747 64.4135 33.778V39H63.1675Z" fill="white"/>
<path d="M25.5152 17.7087L18.0906 21.5978L14.5551 28.6688C14.0924 29.9051 12.5149 29.8759 12.1219 28.6175L5.00909 9.93049C4.63436 8.72823 5.75655 7.60604 6.79712 8.14246L25.7229 15.0165C26.8042 15.5866 26.661 17.3365 25.5152 17.7087Z" fill="#EF667E" stroke="white" stroke-width="0.99"/>
</svg>