<?xml version="1.0" encoding="UTF-8"?>
<svg width="90px" height="39px" viewBox="0 0 90 39" version="1.1" xmlns="http://www.w3.org/2000/svg" xmlns:xlink="http://www.w3.org/1999/xlink">
    <title>Nadia</title>
    <g id="Page-1" stroke="none" stroke-width="1" fill="none" fill-rule="evenodd">
        <g id="Nadia" transform="translate(0.894215, 1.157026)">
            <g id="Group" transform="translate(0.000000, 0.000000)">
                <path d="M19.9498846,10.4957743 L12.5606846,13.1345743 L10.0433846,20.8514743 C9.64738461,22.0340743 8.07048461,22.0858743 7.61088461,20.9253743 L0.101424605,1.86967426 C-0.336985395,0.760934258 0.723684605,-0.347815742 1.79138461,0.103074258 L20.0135846,7.96037426 C21.1236846,8.44087426 21.0741846,10.0891743 19.9498846,10.4957743 Z" id="Path" fill="#3DB55E" fill-rule="nonzero"></path>
                <path d="M19.9498846,10.4957743 L12.5606846,13.1345743 L10.0433846,20.8514743 C9.64738461,22.0340743 8.07048461,22.0858743 7.61088461,20.9253743 L0.101424605,1.86967426 C-0.336985395,0.760934258 0.723684605,-0.347815742 1.79138461,0.103074258 L20.0135846,7.96037426 C21.1236846,8.44087426 21.0741846,10.0891743 19.9498846,10.4957743 Z" id="Path" stroke="#FFFFFF" stroke-width="0.99"></path>
            </g>
            <rect id="Rectangle" fill="#3DB55E" fill-rule="nonzero" x="15.1057846" y="15.8429743" width="73" height="22" rx="5"></rect>
            <path d="M33.6258846,21.3789743 C33.7645846,21.3789743 33.8658846,21.3976743 33.9298846,21.4349743 C33.9992846,21.4669743 34.0765846,21.5362743 34.1618846,21.6429743 L40.8018846,30.2829743 C40.7858846,30.1442743 40.7752846,30.0109743 40.7698846,29.8829743 C40.7645846,29.7496743 40.7618846,29.6216743 40.7618846,29.4989743 L40.7618846,21.3789743 L42.1218846,21.3789743 L42.1218846,32.8429743 L41.3378846,32.8429743 C41.2152846,32.8429743 41.1112846,32.8216743 41.0258846,32.7789743 C40.9458846,32.7362743 40.8658846,32.6642743 40.7858846,32.5629743 L34.1538846,23.9309743 C34.1645846,24.0642743 34.1725846,24.1949743 34.1778846,24.3229743 C34.1832846,24.4509743 34.1858846,24.5682743 34.1858846,24.6749743 L34.1858846,32.8429743 L32.8258846,32.8429743 L32.8258846,21.3789743 L33.6258846,21.3789743 Z M50.6476846,32.8429743 L50.0156846,32.8429743 C49.8769846,32.8429743 49.7649846,32.8216743 49.6796846,32.7789743 C49.5942846,32.7362743 49.5382846,32.6456743 49.5116846,32.5069743 L49.3516846,31.7549743 C49.1382846,31.9469743 48.9302846,32.1202743 48.7276846,32.2749743 C48.5249846,32.4242743 48.3116846,32.5522743 48.0876846,32.6589743 C47.8636846,32.7602743 47.6236846,32.8376743 47.3676846,32.8909743 C47.1169846,32.9442743 46.8369846,32.9709743 46.5276846,32.9709743 C46.2129846,32.9709743 45.9169846,32.9282743 45.6396846,32.8429743 C45.3676846,32.7522743 45.1302846,32.6189743 44.9276846,32.4429743 C44.7249846,32.2669743 44.5622846,32.0456743 44.4396846,31.7789743 C44.3222846,31.5069743 44.2636846,31.1869743 44.2636846,30.8189743 C44.2636846,30.4989743 44.3516846,30.1922743 44.5276846,29.8989743 C44.7036846,29.6002743 44.9862846,29.3362743 45.3756846,29.1069743 C45.7702846,28.8776743 46.2849846,28.6909743 46.9196846,28.5469743 C47.5542846,28.3976743 48.3302846,28.3122743 49.2476846,28.2909743 L49.2476846,27.6589743 C49.2476846,27.0296743 49.1116846,26.5549743 48.8396846,26.2349743 C48.5729846,25.9096743 48.1756846,25.7469743 47.6476846,25.7469743 C47.3009846,25.7469743 47.0076846,25.7922743 46.7676846,25.8829743 C46.5329846,25.9682743 46.3276846,26.0669743 46.1516846,26.1789743 C45.9809846,26.2856743 45.8316846,26.3842743 45.7036846,26.4749743 C45.5809846,26.5602743 45.4582846,26.6029743 45.3356846,26.6029743 C45.2396846,26.6029743 45.1542846,26.5789743 45.0796846,26.5309743 C45.0102846,26.4776743 44.9542846,26.4136743 44.9116846,26.3389743 L44.6556846,25.8829743 C45.1036846,25.4509743 45.5862846,25.1282743 46.1036846,24.9149743 C46.6209846,24.7016743 47.1942846,24.5949743 47.8236846,24.5949743 C48.2769846,24.5949743 48.6796846,24.6696743 49.0316846,24.8189743 C49.3836846,24.9682743 49.6796846,25.1762743 49.9196846,25.4429743 C50.1596846,25.7096743 50.3409846,26.0322743 50.4636846,26.4109743 C50.5862846,26.7896743 50.6476846,27.2056743 50.6476846,27.6589743 L50.6476846,32.8429743 Z M46.9516846,31.9709743 C47.2022846,31.9709743 47.4316846,31.9469743 47.6396846,31.8989743 C47.8476846,31.8456743 48.0422846,31.7736743 48.2236846,31.6829743 C48.4102846,31.5869743 48.5862846,31.4722743 48.7516846,31.3389743 C48.9222846,31.2056743 49.0876846,31.0536743 49.2476846,30.8829743 L49.2476846,29.1949743 C48.5916846,29.2162743 48.0342846,29.2696743 47.5756846,29.3549743 C47.1169846,29.4349743 46.7436846,29.5416743 46.4556846,29.6749743 C46.1676846,29.8082743 45.9569846,29.9656743 45.8236846,30.1469743 C45.6956846,30.3282743 45.6316846,30.5309743 45.6316846,30.7549743 C45.6316846,30.9682743 45.6662846,31.1522743 45.7356846,31.3069743 C45.8049846,31.4616743 45.8982846,31.5896743 46.0156846,31.6909743 C46.1329846,31.7869743 46.2716846,31.8589743 46.4316846,31.9069743 C46.5916846,31.9496743 46.7649846,31.9709743 46.9516846,31.9709743 Z M58.5090846,32.8429743 C58.3063846,32.8429743 58.1783846,32.7442743 58.1250846,32.5469743 L57.9970846,31.5629743 C57.6503846,31.9842743 57.2530846,32.3229743 56.8050846,32.5789743 C56.3623846,32.8296743 55.8530846,32.9549743 55.2770846,32.9549743 C54.8130846,32.9549743 54.3916846,32.8669743 54.0130846,32.6909743 C53.6343846,32.5096743 53.3116846,32.2456743 53.0450846,31.8989743 C52.7783846,31.5522743 52.5730846,31.1202743 52.4290846,30.6029743 C52.2850846,30.0856743 52.2130846,29.4909743 52.2130846,28.8189743 C52.2130846,28.2216743 52.2930846,27.6669743 52.4530846,27.1549743 C52.6130846,26.6376743 52.8423846,26.1896743 53.1410846,25.8109743 C53.4450846,25.4322743 53.8130846,25.1362743 54.2450846,24.9229743 C54.6770846,24.7042743 55.1676846,24.5949743 55.7170846,24.5949743 C56.2130846,24.5949743 56.6370846,24.6802743 56.9890846,24.8509743 C57.3410846,25.0162743 57.6556846,25.2509743 57.9330846,25.5549743 L57.9330846,21.0589743 L59.3570846,21.0589743 L59.3570846,32.8429743 L58.5090846,32.8429743 Z M55.7489846,31.8029743 C56.2130846,31.8029743 56.6183846,31.6962743 56.9650846,31.4829743 C57.3170846,31.2696743 57.6396846,30.9682743 57.9330846,30.5789743 L57.9330846,26.6589743 C57.6716846,26.3069743 57.3836846,26.0616743 57.0690846,25.9229743 C56.7596846,25.7789743 56.4156846,25.7069743 56.0370846,25.7069743 C55.2796846,25.7069743 54.6983846,25.9762743 54.2930846,26.5149743 C53.8876846,27.0536743 53.6850846,27.8216743 53.6850846,28.8189743 C53.6850846,29.3469743 53.7303846,29.8002743 53.8210846,30.1789743 C53.9116846,30.5522743 54.0450846,30.8616743 54.2210846,31.1069743 C54.3970846,31.3469743 54.6130846,31.5229743 54.8690846,31.6349743 C55.1250846,31.7469743 55.4183846,31.8029743 55.7489846,31.8029743 Z M63.3265846,24.7389743 L63.3265846,32.8429743 L61.9025846,32.8429743 L61.9025846,24.7389743 L63.3265846,24.7389743 Z M63.6465846,22.1949743 C63.6465846,22.3336743 63.6171846,22.4642743 63.5585846,22.5869743 C63.5051846,22.7042743 63.4305846,22.8109743 63.3345846,22.9069743 C63.2438846,22.9976743 63.1371846,23.0696743 63.0145846,23.1229743 C62.8918846,23.1762743 62.7611846,23.2029743 62.6225846,23.2029743 C62.4838846,23.2029743 62.3531846,23.1762743 62.2305846,23.1229743 C62.1131846,23.0696743 62.0065846,22.9976743 61.9105846,22.9069743 C61.8198846,22.8109743 61.7478846,22.7042743 61.6945846,22.5869743 C61.6411846,22.4642743 61.6145846,22.3336743 61.6145846,22.1949743 C61.6145846,22.0562743 61.6411846,21.9256743 61.6945846,21.8029743 C61.7478846,21.6749743 61.8198846,21.5656743 61.9105846,21.4749743 C62.0065846,21.3789743 62.1131846,21.3042743 62.2305846,21.2509743 C62.3531846,21.1976743 62.4838846,21.1709743 62.6225846,21.1709743 C62.7611846,21.1709743 62.8918846,21.1976743 63.0145846,21.2509743 C63.1371846,21.3042743 63.2438846,21.3789743 63.3345846,21.4749743 C63.4305846,21.5656743 63.5051846,21.6749743 63.5585846,21.8029743 C63.6171846,21.9256743 63.6465846,22.0562743 63.6465846,22.1949743 Z M71.7882846,32.8429743 L71.1562846,32.8429743 C71.0175846,32.8429743 70.9055846,32.8216743 70.8202846,32.7789743 C70.7349846,32.7362743 70.6789846,32.6456743 70.6522846,32.5069743 L70.4922846,31.7549743 C70.2789846,31.9469743 70.0709846,32.1202743 69.8682846,32.2749743 C69.6655846,32.4242743 69.4522846,32.5522743 69.2282846,32.6589743 C69.0042846,32.7602743 68.7642846,32.8376743 68.5082846,32.8909743 C68.2575846,32.9442743 67.9775846,32.9709743 67.6682846,32.9709743 C67.3535846,32.9709743 67.0575846,32.9282743 66.7802846,32.8429743 C66.5082846,32.7522743 66.2709846,32.6189743 66.0682846,32.4429743 C65.8655846,32.2669743 65.7029846,32.0456743 65.5802846,31.7789743 C65.4629846,31.5069743 65.4042846,31.1869743 65.4042846,30.8189743 C65.4042846,30.4989743 65.4922846,30.1922743 65.6682846,29.8989743 C65.8442846,29.6002743 66.1269846,29.3362743 66.5162846,29.1069743 C66.9109846,28.8776743 67.4255846,28.6909743 68.0602846,28.5469743 C68.6949846,28.3976743 69.4709846,28.3122743 70.3882846,28.2909743 L70.3882846,27.6589743 C70.3882846,27.0296743 70.2522846,26.5549743 69.9802846,26.2349743 C69.7135846,25.9096743 69.3162846,25.7469743 68.7882846,25.7469743 C68.4415846,25.7469743 68.1482846,25.7922743 67.9082846,25.8829743 C67.6735846,25.9682743 67.4682846,26.0669743 67.2922846,26.1789743 C67.1215846,26.2856743 66.9722846,26.3842743 66.8442846,26.4749743 C66.7215846,26.5602743 66.5989846,26.6029743 66.4762846,26.6029743 C66.3802846,26.6029743 66.2949846,26.5789743 66.2202846,26.5309743 C66.1509846,26.4776743 66.0949846,26.4136743 66.0522846,26.3389743 L65.7962846,25.8829743 C66.2442846,25.4509743 66.7269846,25.1282743 67.2442846,24.9149743 C67.7615846,24.7016743 68.3349846,24.5949743 68.9642846,24.5949743 C69.4175846,24.5949743 69.8202846,24.6696743 70.1722846,24.8189743 C70.5242846,24.9682743 70.8202846,25.1762743 71.0602846,25.4429743 C71.3002846,25.7096743 71.4815846,26.0322743 71.6042846,26.4109743 C71.7269846,26.7896743 71.7882846,27.2056743 71.7882846,27.6589743 L71.7882846,32.8429743 Z M68.0922846,31.9709743 C68.3429846,31.9709743 68.5722846,31.9469743 68.7802846,31.8989743 C68.9882846,31.8456743 69.1829846,31.7736743 69.3642846,31.6829743 C69.5509846,31.5869743 69.7269846,31.4722743 69.8922846,31.3389743 C70.0629846,31.2056743 70.2282846,31.0536743 70.3882846,30.8829743 L70.3882846,29.1949743 C69.7322846,29.2162743 69.1749846,29.2696743 68.7162846,29.3549743 C68.2575846,29.4349743 67.8842846,29.5416743 67.5962846,29.6749743 C67.3082846,29.8082743 67.0975846,29.9656743 66.9642846,30.1469743 C66.8362846,30.3282743 66.7722846,30.5309743 66.7722846,30.7549743 C66.7722846,30.9682743 66.8069846,31.1522743 66.8762846,31.3069743 C66.9455846,31.4616743 67.0389846,31.5896743 67.1562846,31.6909743 C67.2735846,31.7869743 67.4122846,31.8589743 67.5722846,31.9069743 C67.7322846,31.9496743 67.9055846,31.9709743 68.0922846,31.9709743 Z" id="Shape" fill="#FFFFFF" fill-rule="nonzero"></path>
        </g>
    </g>
</svg>