<?xml version="1.0" encoding="UTF-8"?>
<svg width="130px" height="52px" viewBox="0 0 130 52" version="1.1" xmlns="http://www.w3.org/2000/svg" xmlns:xlink="http://www.w3.org/1999/xlink">
    <title>Artboard</title>
    <g id="Artboard" stroke="none" stroke-width="1" fill="none" fill-rule="evenodd">
        <g id="Vani-with-text-(2)" fill-rule="nonzero">
            <g id="Group" transform="translate(67, 15.8467)" fill="#000000">
                <polygon id="Path" points="18.6973267 2.11810013 11.2469415 21.745828 7.47893068 21.745828 0 2.11810013 3.48255551 2.11810013 9.36293611 18.4415918 15.2718623 2.11810013"></polygon>
                <path d="M20.3244223,13.8947368 C20.3244223,12.3320496 20.652696,10.9482242 21.3092433,9.74326059 C21.9657907,8.53829697 22.8602175,7.60162601 23.9925238,6.93324775 C25.12483,6.26486949 26.3760761,5.93068036 27.7462619,5.93068036 C28.9832352,5.93068036 30.0632079,6.17073171 30.9861803,6.6508344 C31.9091527,7.1309371 32.646579,7.72871202 33.1984594,8.44415918 L33.1984594,6.18485237 L36.4811962,6.18485237 L36.4811962,21.745828 L33.1984594,21.745828 L33.1984594,19.4300385 C32.646579,20.1643132 31.89488,20.7762088 30.943362,21.2657253 C29.9918441,21.7552418 28.9071137,22 27.6891708,22 C26.3380154,22 25.1010422,21.6563971 23.978251,20.9691913 C22.8554599,20.2819854 21.9657907,19.32178 21.3092433,18.0885751 C20.652696,16.8553702 20.3244223,15.4574241 20.3244223,13.8947368 Z M33.1984594,13.9512195 C33.1984594,12.8780488 32.9748527,11.9460847 32.5276393,11.1553273 C32.080426,10.36457 31.4952424,9.76208814 30.7720888,9.3478819 C30.0489352,8.93367566 29.2686906,8.72657253 28.4313548,8.72657253 C27.594019,8.72657253 26.8137744,8.92896876 26.0906208,9.33376123 C25.3674671,9.7385537 24.7822836,10.3316217 24.3350702,11.1129653 C23.8878569,11.8943089 23.6642501,12.8215661 23.6642501,13.8947368 C23.6642501,14.9679076 23.8878569,15.9092854 24.3350702,16.7188703 C24.7822836,17.5284552 25.3722248,18.1450578 26.1048935,18.5686778 C26.8375623,18.9922978 27.6130494,19.2041078 28.4313548,19.2041078 C29.2686906,19.2041078 30.0489352,18.9970047 30.7720888,18.5827985 C31.4952424,18.1685922 32.080426,17.5614035 32.5276393,16.7612323 C32.9748527,15.9610612 33.1984594,15.0243902 33.1984594,13.9512195 Z" id="Shape"></path>
                <path d="M48.698686,5.93068036 C49.9356593,5.93068036 51.0441776,6.18485237 52.0242411,6.69319641 C53.0043045,7.20154044 53.7702764,7.9546427 54.3221568,8.95250321 C54.8740372,9.95036372 55.1499773,11.1553273 55.1499773,12.5673941 L55.1499773,21.745828 L51.9243317,21.745828 L51.9243317,13.0474968 C51.9243317,11.6542576 51.57227,10.5857938 50.8681468,9.84210526 C50.1640236,9.09841677 49.2029904,8.72657253 47.9850476,8.72657253 C46.7671047,8.72657253 45.801314,9.09841677 45.0876756,9.84210526 C44.3740372,10.5857938 44.0172179,11.6542576 44.0172179,13.0474968 L44.0172179,21.745828 L40.7630267,21.745828 L40.7630267,6.18485237 L44.0172179,6.18485237 L44.0172179,7.96405648 C44.5500679,7.32391956 45.2304033,6.8249893 46.0582238,6.46726573 C46.8860444,6.10954215 47.7661985,5.93068036 48.698686,5.93068036 Z" id="Path"></path>
                <path d="M60.9447213,4.12323492 C60.3547803,4.12323492 59.8599909,3.92554557 59.4603534,3.53016688 C59.0607159,3.13478819 58.8608971,2.64527171 58.8608971,2.06161746 C58.8608971,1.4779632 59.0607159,0.988446727 59.4603534,0.593068036 C59.8599909,0.197689345 60.3547803,0 60.9447213,0 C61.5156321,0 62.0009062,0.197689345 62.4005437,0.593068036 C62.8001812,0.988446727 63,1.4779632 63,2.06161746 C63,2.64527171 62.8001812,3.13478819 62.4005437,3.53016688 C62.0009062,3.92554557 61.5156321,4.12323492 60.9447213,4.12323492 Z M62.5432714,6.18485237 L62.5432714,21.745828 L59.2890802,21.745828 L59.2890802,6.18485237 L62.5432714,6.18485237 Z" id="Shape"></path>
            </g>
            <g id="Vani-BETA">
                <rect id="Rectangle" fill="#F3F3F3" x="0" y="0" width="50.9161947" height="51.8467067" rx="8"></rect>
                <g id="Group" transform="translate(10.4083, 11.8467)">
                    <g id="Path">
                        <path d="M9.24574207,1.82456099 C7.91045268,1.02474897 6.44287458,0.470240127 4.9091521,0.191955017 L4.59289938,0.140420737 C3.93765675,0.0435362915 3.27414608,-0.00387524573 2.61063542,0.000247496627 C1.73422258,0.000247496627 0.85987675,0.0785796017 0,0.237305183 C0.440273431,0.154850335 0.87641284,0.095070571 1.31255225,0.0559045186 C0.87641284,0.0971319423 0.438206418,0.156911707 0,0.237305183 L1.70941844,3.58497197 L3.07778,6.26887726 C3.16459448,6.26887726 3.24727493,6.26887726 3.33408941,6.26887726 C6.07701356,6.26887726 8.48921589,4.46105475 9.25607711,1.83280648 L9.25607711,1.83280648 L9.24574207,1.82456099 Z" fill="#FF7700"></path>
                        <path d="M9.25607711,1.83692922 C8.48921589,4.46517749 6.07701356,6.273 3.33408941,6.273 C3.24727493,6.273 3.16459448,6.273 3.07778,6.273 L7.85877739,15.6357479 C11.8708465,12.1087418 12.4806149,6.09159934 9.25607711,1.83692922 L9.25607711,1.83692922 Z" fill="#FF5E00"></path>
                        <path d="M16.3645294,10.7276231 C15.7981683,9.08058756 14.9837658,7.52837507 13.948193,6.12458127 C12.5302232,4.27140858 10.9530935,2.84287836 9.25607711,1.83280648 L9.25607711,1.83280648 C12.4806149,6.0874766 11.8729136,12.1046191 7.86084442,15.6316252 L7.92698879,15.7594302 C8.35279312,15.8253941 8.78479852,15.8563146 9.2147369,15.858376 C12.3007849,15.858376 15.1408586,14.1783585 16.6208388,11.4759009 L16.6208388,11.4759009 C16.5381583,11.2223522 16.4534109,10.9729263 16.3645294,10.7276231 Z" fill="#FF4F1E"></path>
                        <path d="M17.7887002,19.0370104 C17.7887002,18.9751692 17.7887002,18.674209 17.7887002,18.4928084 C17.7887002,18.3114077 17.7887002,18.323776 17.7887002,18.2392597 C17.7887002,18.1568049 17.7721642,17.8661516 17.7638961,17.6806281 C17.7638961,17.6249711 17.7638961,17.5651914 17.7535611,17.5095343 C17.739092,17.2807221 17.7204889,17.0539713 17.7018858,16.8272205 C17.6915507,16.7427043 17.6853497,16.6623108 17.6750146,16.5777946 C17.6584785,16.419069 17.6419424,16.258282 17.6233393,16.0995565 C17.6233393,16.0150402 17.6047362,15.9346467 17.5944012,15.8521919 C17.56753,15.6316252 17.5365249,15.4131199 17.5013856,15.1966759 C17.4910506,15.1265892 17.4786485,15.0606254 17.4683135,14.9926001 C17.4414423,14.8318132 17.4145712,14.6689648 17.383566,14.5102393 L17.3360247,14.2463837 C17.3050196,14.0917809 17.2740144,13.9392394 17.2409422,13.7846366 L17.197535,13.5743768 C17.1520607,13.370301 17.1024524,13.1662252 17.0507772,12.9642109 C17.0321741,12.881756 17.0094369,12.7972398 16.9887668,12.7168463 C16.9536276,12.5807958 16.9164214,12.4447453 16.8792152,12.3086948 L16.8068698,12.0613303 C16.7510605,11.8675614 16.6890502,11.6737925 16.6249728,11.4841464 L16.6249728,11.4841464 L16.6249728,11.4965146 C16.5836326,11.5748467 16.5402253,11.6511174 16.4968181,11.7253268 L16.486483,11.7438791 C15.3268896,13.6836294 13.4376412,15.0771163 11.2383411,15.6151342 L11.219738,15.6151342 C11.0378409,15.6604844 10.8414749,15.7017118 10.6513098,15.7346938 C10.4590778,15.7676757 10.2048353,15.7985963 9.9795311,15.81921 C9.75422685,15.8398237 9.47104631,15.8563146 9.21266988,15.8563146 C8.7827315,15.8563146 8.3507261,15.8233327 7.92492177,15.7573688 L7.91045268,15.7285096 L7.91045268,15.7285096 L15.1904669,29.9870141 C15.3165546,29.7499564 15.4364412,29.5128987 15.5542609,29.2614114 C15.5873331,29.1954476 15.6183383,29.1274223 15.6493434,29.0573357 C15.6824156,28.9893105 15.8312404,28.6759821 15.9077199,28.4822131 C15.934591,28.4286175 15.9593951,28.3708991 15.9841993,28.3152421 C16.0854828,28.0740617 16.1826324,27.8328812 16.2756479,27.5896394 L16.3355912,27.4267911 C16.4100036,27.2288995 16.478215,27.0310078 16.5464264,26.8351776 C16.6125708,26.6393473 16.5939677,26.692943 16.6187718,26.620795 C16.6952512,26.3899214 16.7675966,26.1569865 16.835808,25.9240515 C16.839942,25.9075605 16.846143,25.8931309 16.8523441,25.87664 C16.9226224,25.6292754 16.9887668,25.3819109 17.0507772,25.132485 L17.1065865,24.9181024 C17.1541277,24.7243335 17.197535,24.5305646 17.2388752,24.3367957 C17.2533443,24.2728932 17.2678133,24.211052 17.2802154,24.1450882 C17.3339577,23.899785 17.381499,23.6524205 17.4249062,23.4050559 L17.4517774,23.2360235 C17.4848496,23.0381318 17.5158547,22.8402402 17.5427259,22.6423486 C17.555128,22.5660779 17.565463,22.4877457 17.575798,22.411475 C17.6047362,22.1970924 17.6295404,21.9806484 17.6543445,21.7642044 L17.6646796,21.6590745 C17.6894837,21.4137714 17.7101538,21.1705296 17.7266899,20.9334719 L17.743226,20.7005369 C17.7535611,20.5191363 17.7638961,20.3377356 17.7700971,20.1563349 C17.7700971,20.0800642 17.7700971,20.0058548 17.7804322,19.9337069 C17.7804322,19.6945878 17.7907673,19.4554687 17.7928343,19.2204724 C17.7907673,19.1606926 17.7887002,19.0988515 17.7887002,19.0370104 Z" fill="#FF1368"></path>
                    </g>
                    <path d="M15.1925339,29.9870141 C15.1160545,29.8633318 14.5186882,28.6718593 14.30992,28.2472168 C13.9647291,27.5958235 13.7228888,27.0846035 13.580265,26.715618 C10.6699129,19.395689 11.6517434,11.0759949 14.1879664,6.45646205 C14.2024354,6.42966421 15.2442092,7.94889477 15.2442092,8.27253004 C15.2400752,8.51577187 15.2214721,15.7532461 15.1925339,29.9870141 Z" id="Path" fill="#000000" opacity="0.25"></path>
                    <g id="Path" transform="translate(12.592, 0.0002)">
                        <path d="M15.178314,0 C11.8855648,0 8.78504772,1.20590214 6.09586585,3.65687249 C9.04342412,5.24000554 11.2509923,7.9115426 12.2431578,11.1025452 L17.7889494,0.239119057 C16.9270056,0.0803934762 16.0547269,0 15.178314,0" fill="#238BE7"></path>
                        <path d="M6.09586585,3.65068838 C5.27112831,4.4051502 4.51666912,5.23382143 3.84075641,6.12433379 C2.02178635,8.50727888 0.622419626,12.1538445 0.161476079,16.2394822 C1.87709555,12.8361583 5.37034484,10.6882096 9.18811494,10.6902709 L9.18811494,10.6902709 C10.2154196,10.6882096 11.2365232,10.8448738 12.2162866,11.1499567 L12.2162866,11.1499567 L12.2431578,11.1004838 C11.2509923,7.9115426 9.04342412,5.23794417 6.09586585,3.65481112" fill="#6359E0"></path>
                        <path d="M6.79864972,19.4552212 C5.36827782,17.4350775 3.04702402,16.2332981 0.568677326,16.2332981 C0.430187561,16.2332981 0.295831821,16.2332981 0.161476079,16.2436049 C0.151141022,16.3136916 0.144939987,16.3837782 0.136671942,16.4538648 C0.0581255082,17.226879 0.0105842455,18.0163841 0.000249188437,18.8141348 C0.000249188437,18.9172034 0.000249188437,19.0223333 0.000249188437,19.1254018 C-0.0121528801,21.8422891 0.43845561,24.5406239 1.33553856,27.1049697 C1.38101281,27.228652 1.42648706,27.356457 1.47402833,27.4822006 C1.7944151,28.339731 2.17267818,29.1766478 2.60054955,29.9867666 L3.17517872,28.8612579 L4.18388028,26.8740961 L7.4249542,20.5188888 C7.2471912,20.147842 7.03635604,19.7912247 6.79864972,19.4552212 L6.79864972,19.4552212 Z" fill="#A40588"></path>
                        <path d="M9.18811494,10.6902709 C5.37034484,10.6882096 1.87709555,12.8361583 0.161476079,16.2394822 L0.161476079,16.2394822 C0.295831821,16.2394822 0.430187561,16.227114 0.568677326,16.227114 C3.04702402,16.2291753 5.36827782,17.4288933 6.79864972,19.4490371 C7.03635604,19.787102 7.2471912,20.1457806 7.4249542,20.5188888 L8.08846485,19.2202249 L8.50600116,18.4018606 L12.2100856,11.1375885 C11.2323892,10.8366283 10.2112856,10.6840868 9.18811494,10.6902709 L9.18811494,10.6902709 Z" fill="#6E49B8"></path>
                    </g>
                </g>
            </g>
        </g>
    </g>
</svg>