<svg width="82" height="45" viewBox="0 0 82 45" fill="none" xmlns="http://www.w3.org/2000/svg">
<rect x="30.5" y="23" width="51" height="22" rx="5" fill="#F9C914"/>
<path d="M48.8573 28.969V29.473C48.8573 29.6317 48.8083 29.781 48.7103 29.921L43.0333 37.894H48.7593V39H41.2553V38.468C41.2553 38.328 41.2997 38.195 41.3883 38.069L47.0723 30.075H41.5213V28.969H48.8573ZM52.9589 31.797C53.3835 31.797 53.7755 31.8693 54.1349 32.014C54.4942 32.154 54.8045 32.3593 55.0659 32.63C55.3272 32.896 55.5302 33.2273 55.6749 33.624C55.8242 34.016 55.8989 34.464 55.8989 34.968C55.8989 35.164 55.8779 35.2947 55.8359 35.36C55.7939 35.4253 55.7145 35.458 55.5979 35.458H50.8799C50.8892 35.906 50.9499 36.2957 51.0619 36.627C51.1739 36.9583 51.3279 37.236 51.5239 37.46C51.7199 37.6793 51.9532 37.845 52.2239 37.957C52.4945 38.0643 52.7979 38.118 53.1339 38.118C53.4465 38.118 53.7149 38.083 53.9389 38.013C54.1675 37.9383 54.3635 37.859 54.5269 37.775C54.6902 37.691 54.8255 37.614 54.9329 37.544C55.0449 37.4693 55.1405 37.432 55.2199 37.432C55.3225 37.432 55.4019 37.4717 55.4579 37.551L55.8079 38.006C55.6539 38.1927 55.4695 38.356 55.2549 38.496C55.0402 38.6313 54.8092 38.7433 54.5619 38.832C54.3192 38.9207 54.0672 38.986 53.8059 39.028C53.5445 39.0747 53.2855 39.098 53.0289 39.098C52.5389 39.098 52.0862 39.0163 51.6709 38.853C51.2602 38.685 50.9032 38.4423 50.5999 38.125C50.3012 37.803 50.0679 37.4063 49.8999 36.935C49.7319 36.4637 49.6479 35.9223 49.6479 35.311C49.6479 34.8163 49.7225 34.3543 49.8719 33.925C50.0259 33.4957 50.2452 33.1247 50.5299 32.812C50.8145 32.4947 51.1622 32.2473 51.5729 32.07C51.9835 31.888 52.4455 31.797 52.9589 31.797ZM52.9869 32.714C52.3849 32.714 51.9112 32.889 51.5659 33.239C51.2205 33.5843 51.0059 34.065 50.9219 34.681H54.7789C54.7789 34.3917 54.7392 34.128 54.6599 33.89C54.5805 33.6473 54.4639 33.4397 54.3099 33.267C54.1559 33.0897 53.9669 32.9543 53.7429 32.861C53.5235 32.763 53.2715 32.714 52.9869 32.714ZM57.4937 39V31.909H58.2357C58.413 31.909 58.525 31.9953 58.5717 32.168L58.6697 32.938C58.9777 32.5973 59.3207 32.322 59.6987 32.112C60.0813 31.902 60.5223 31.797 61.0217 31.797C61.409 31.797 61.7497 31.8623 62.0437 31.993C62.3423 32.119 62.5897 32.301 62.7857 32.539C62.9863 32.7723 63.138 33.0547 63.2407 33.386C63.3433 33.7173 63.3947 34.0837 63.3947 34.485V39H62.1487V34.485C62.1487 33.9483 62.025 33.533 61.7777 33.239C61.535 32.9403 61.1617 32.791 60.6577 32.791C60.289 32.791 59.9437 32.8797 59.6217 33.057C59.3043 33.2343 59.0103 33.4747 58.7397 33.778V39H57.4937ZM70.481 39H69.928C69.8066 39 69.7086 38.9813 69.634 38.944C69.5593 38.9067 69.5103 38.8273 69.487 38.706L69.347 38.048C69.1603 38.216 68.9783 38.3677 68.801 38.503C68.6236 38.6337 68.437 38.7457 68.241 38.839C68.045 38.9277 67.835 38.9953 67.611 39.042C67.3916 39.0887 67.1466 39.112 66.876 39.112C66.6006 39.112 66.3416 39.0747 66.099 39C65.861 38.9207 65.6533 38.804 65.476 38.65C65.2986 38.496 65.1563 38.3023 65.049 38.069C64.9463 37.831 64.895 37.551 64.895 37.229C64.895 36.949 64.972 36.6807 65.126 36.424C65.28 36.1627 65.5273 35.9317 65.868 35.731C66.2133 35.5303 66.6636 35.367 67.219 35.241C67.7743 35.1103 68.4533 35.0357 69.256 35.017V34.464C69.256 33.9133 69.137 33.498 68.899 33.218C68.6656 32.9333 68.318 32.791 67.856 32.791C67.5526 32.791 67.296 32.8307 67.086 32.91C66.8806 32.9847 66.701 33.071 66.547 33.169C66.3976 33.2623 66.267 33.3487 66.155 33.428C66.0476 33.5027 65.9403 33.54 65.833 33.54C65.749 33.54 65.6743 33.519 65.609 33.477C65.5483 33.4303 65.4993 33.3743 65.462 33.309L65.238 32.91C65.63 32.532 66.0523 32.2497 66.505 32.063C66.9576 31.8763 67.4593 31.783 68.01 31.783C68.4066 31.783 68.759 31.8483 69.067 31.979C69.375 32.1097 69.634 32.2917 69.844 32.525C70.054 32.7583 70.2126 33.0407 70.32 33.372C70.4273 33.7033 70.481 34.0673 70.481 34.464V39ZM67.247 38.237C67.4663 38.237 67.667 38.216 67.849 38.174C68.031 38.1273 68.2013 38.0643 68.36 37.985C68.5233 37.901 68.6773 37.8007 68.822 37.684C68.9713 37.5673 69.116 37.4343 69.256 37.285V35.808C68.682 35.8267 68.1943 35.8733 67.793 35.948C67.3916 36.018 67.065 36.1113 66.813 36.228C66.561 36.3447 66.3766 36.4823 66.26 36.641C66.148 36.7997 66.092 36.977 66.092 37.173C66.092 37.3597 66.1223 37.5207 66.183 37.656C66.2436 37.7913 66.3253 37.9033 66.428 37.992C66.5306 38.076 66.652 38.139 66.792 38.181C66.932 38.2183 67.0836 38.237 67.247 38.237Z" fill="white"/>
<path d="M25.5152 17.7086L18.0906 21.5977L14.5551 28.6688C14.0924 29.9051 12.5149 29.8759 12.1219 28.6175L5.00909 9.93046C4.63436 8.7282 5.75655 7.60601 6.79712 8.14243L25.7229 15.0164C26.8042 15.5865 26.661 17.3364 25.5152 17.7086Z" fill="#F9C914" stroke="white" stroke-width="0.99"/>
</svg>
